<svg width="510" height="421" viewBox="0 0 510 421" fill="none" xmlns="http://www.w3.org/2000/svg">
<path d="M380.649 298.22L340.927 274.569L309.726 321.663C327.954 337.092 358.577 348.312 374.401 344.886C406.875 337.854 472.498 244.337 481.604 237.218C512.602 212.98 522.678 203.782 483.89 222.616C446.909 240.572 466.496 222.616 457.436 222.616C446.551 223.387 450.158 233.185 454.198 240.206L380.649 298.22Z" fill="url(#paint0_linear)"/>
<path d="M155.267 262.392C166.474 254.498 210.756 240.28 230.204 234.158L250.779 236.435C263.743 239.694 291.549 245.252 304.34 250.511C317.131 255.771 340.343 272.543 361.998 286.529L356.8 304.788C352.261 320.732 340.151 333.411 324.432 338.676C320.387 364.764 316.899 407.177 317.475 420.326L166.989 420.208L160.1 355.653L129.111 359.02L102.934 338.676C135.711 281.175 141.259 272.258 155.267 262.392Z" fill="url(#paint1_linear)"/>
<path d="M112.216 410.729C64.5352 404.598 95.5463 355.585 104 339.398C114.22 348.123 126.899 353.458 140.283 354.664L156.595 356.134L149.867 371.876L222.506 389.124L232.697 417.798C225.438 416.545 171.509 418.355 112.216 410.729Z" fill="url(#paint2_linear)"/>
<path d="M235.275 105.477C237.622 101.172 244.352 95.1466 252.499 105.477H235.275Z" fill="#30235B"/>
<ellipse cx="239.187" cy="252.93" rx="25.9725" ry="18.7718" fill="#CF0606"/>
<path d="M217.906 251.921L221.536 215.258H256.881L260.941 251.921C259.522 256.239 252.822 264.998 240.416 264.998C224.603 264.998 218.919 256.239 217.906 251.921Z" fill="url(#paint3_linear)"/>
<mask id="mask0" mask-type="alpha" maskUnits="userSpaceOnUse" x="217" y="215" width="44" height="50">
<path d="M217.906 251.921L221.536 215.258H256.881L260.949 251.996C259.53 256.313 252.807 264.999 240.4 264.999C224.588 264.999 218.919 256.239 217.906 251.921Z" fill="url(#paint4_linear)"/>
</mask>
<g mask="url(#mask0)">
<path opacity="0.1" d="M269.619 216.661C237.66 256.767 219.801 224.52 210.576 219.682L216.915 192.569L254.757 187.986L269.619 216.661Z" fill="black"/>
</g>
<path d="M238.574 229.976C200.457 229.976 193.902 174.482 205.679 149.099C232.177 116.25 265.301 135.412 278.55 149.099C281.74 170.251 285.257 229.976 238.574 229.976Z" fill="url(#paint5_linear)"/>
<path d="M279.201 187.522L271.733 181.942L272.888 177.788L281.418 183.493L279.201 187.522Z" fill="#111111"/>
<path d="M201.396 185.904L208.864 180.324L207.709 176.17L199.179 181.875L201.396 185.904Z" fill="#111111"/>
<path d="M208.23 152.434C235.253 170.291 265.212 159.875 276.813 152.434C274.37 160.248 277.831 175.267 279.866 181.8C297.45 158.576 291.701 146.034 286.629 142.667C285.784 131.092 275.409 102.151 240.58 103.523C205.751 104.895 198.992 129.949 199.979 139.237C186.791 157.414 194.637 175.187 200.998 181.8C208.23 167.56 208.065 157.571 208.23 152.434Z" fill="#30235B"/>
<g filter="url(#filter0_d)">
<path d="M243.348 121.395C202.979 120.024 194.007 146.969 192.81 162.59C192.716 163.825 191.706 164.797 190.468 164.797C189.148 164.797 188.097 163.697 188.211 162.382C189.963 142.353 200.482 107.299 243.348 109.715C286.622 112.153 295.073 147.107 293.737 166.572C293.666 167.599 292.799 168.376 291.769 168.376C290.647 168.376 289.745 167.466 289.702 166.344C289.078 150.195 278.499 122.428 243.348 121.395Z" fill="white"/>
</g>
<g filter="url(#filter1_d)">
<rect width="5.4781" height="21.3034" rx="2.73905" transform="matrix(0.984213 0.17699 -0.172201 0.985062 294.546 174.766)" fill="#24C28A"/>
</g>
<g filter="url(#filter2_d)">
<rect width="16.8741" height="44.3781" rx="8.43707" transform="matrix(0.984213 0.17699 -0.172201 0.985062 282.782 160.948)" fill="white"/>
</g>
<g filter="url(#filter3_d)">
<rect width="5.4781" height="21.3034" rx="2.73905" transform="matrix(-0.984213 0.17699 0.172201 0.985062 185.636 174.766)" fill="#24C28A"/>
</g>
<g filter="url(#filter4_d)">
<rect width="16.8741" height="44.3781" rx="8.43707" transform="matrix(-0.984213 0.17699 0.172201 0.985062 197.247 160.948)" fill="white"/>
</g>
<mask id="mask1" mask-type="alpha" maskUnits="userSpaceOnUse" x="181" y="162" width="23" height="45">
<rect width="16.8741" height="44.3781" rx="8.43707" transform="matrix(-0.984213 0.17699 0.172201 0.985062 197.247 160.948)" fill="white"/>
</mask>
<g mask="url(#mask1)">
<rect width="21.9495" height="48.1731" transform="matrix(0.984076 -0.177746 0.172938 0.984933 189.305 160.948)" fill="#E8E8E8"/>
</g>
<mask id="mask2" mask-type="alpha" maskUnits="userSpaceOnUse" x="276" y="162" width="23" height="45">
<rect width="16.8741" height="44.3781" rx="8.43707" transform="matrix(0.984213 0.17699 -0.172201 0.985062 282.782 160.948)" fill="white"/>
</mask>
<g mask="url(#mask2)">
<rect width="21.9495" height="48.1731" transform="matrix(-0.984076 -0.177746 -0.172938 0.984933 291.748 160.948)" fill="#E8E8E8"/>
</g>
<path opacity="0.5" d="M222.149 194.004C216.757 194.004 214.041 189.694 213.351 187.769C212.557 186.159 211.931 181.965 213.81 178.634C216.199 174.398 227.428 173.217 231.362 179.201C235.295 185.185 231.362 194.004 222.149 194.004Z" fill="#E6FCFF"/>
<path opacity="0.5" d="M257.88 194.004C263.273 194.004 265.988 189.694 266.678 187.769C267.472 186.159 268.099 181.965 266.22 178.634C263.831 174.398 252.601 173.217 248.668 179.201C244.734 185.185 248.668 194.004 257.88 194.004Z" fill="#E6FCFF"/>
<path fill-rule="evenodd" clip-rule="evenodd" d="M234.148 177.881C225.353 170.047 217.409 173.361 212.702 175.325L212.702 175.325C212.179 175.544 211.695 175.745 211.255 175.913L208.308 175.918C207.753 175.919 207.305 176.372 207.31 176.927L207.332 179.469C207.337 180.018 207.783 180.46 208.332 180.46L210.463 180.46C208.92 193.899 218.692 197.497 226.507 195.074C233.475 192.915 235.34 186.804 235.712 182.97C237.203 179.621 243.737 181.169 243.996 182.896C244.002 182.936 244.008 182.982 244.016 183.032C244.322 185.135 245.868 195.733 257.631 195.748C267.266 195.761 269.879 187.03 269.981 182.664L272.475 182.641C273.027 182.636 273.471 182.185 273.466 181.632L273.439 178.53C273.434 177.977 272.982 177.534 272.43 177.539L269.936 177.561C263.66 171.112 250.178 171.715 245.43 177.78C240.19 176.555 235.725 177.337 234.148 177.881ZM222.149 194.004C216.757 194.004 214.041 189.694 213.351 187.769C212.557 186.159 211.931 181.965 213.81 178.634C216.199 174.398 227.428 173.217 231.362 179.201C235.295 185.185 231.362 194.004 222.149 194.004ZM266.679 187.769C265.989 189.694 263.274 194.004 257.881 194.004C248.669 194.004 244.735 185.185 248.669 179.201C252.602 173.217 263.832 174.398 266.221 178.634C268.1 181.965 267.473 186.159 266.679 187.769Z" fill="#111111"/>
<path d="M163.801 414.887C163.801 414.324 164.257 413.868 164.82 413.868H319.173C320.158 413.868 320.956 414.666 320.956 415.651V415.651C320.956 418.605 318.561 421 315.607 421H169.915C166.538 421 163.801 418.263 163.801 414.887V414.887Z" fill="#B4B4B4"/>
<rect x="163.801" y="309.872" width="157.155" height="106.645" rx="2.94666" fill="url(#paint6_linear)"/>
<ellipse cx="242.378" cy="363.194" rx="11.1765" ry="11.3357" fill="white"/>
<path fill-rule="evenodd" clip-rule="evenodd" d="M130.715 172.672C130.915 169.215 131.594 166.321 132.161 164.712C133.273 167.534 133.823 170.243 134.009 172.713C136.445 172.902 139.116 173.46 141.897 174.588C140.311 175.163 137.458 175.852 134.049 176.054C133.859 179.724 132.929 182.576 132.161 184.037C131.226 181.383 130.799 178.653 130.688 176.081C128.153 175.969 125.461 175.536 122.844 174.588C124.285 173.809 127.096 172.865 130.715 172.672Z" fill="url(#paint7_linear)"/>
<path fill-rule="evenodd" clip-rule="evenodd" d="M103.828 149.926C103.96 147.625 104.413 145.699 104.79 144.628C105.53 146.506 105.896 148.309 106.02 149.953C107.641 150.079 109.419 150.45 111.271 151.202C110.215 151.584 108.316 152.043 106.047 152.177C105.92 154.62 105.301 156.519 104.79 157.491C104.168 155.724 103.884 153.907 103.81 152.196C102.122 152.12 100.33 151.833 98.5885 151.202C99.5471 150.683 101.419 150.055 103.828 149.926Z" fill="url(#paint8_linear)"/>
<path fill-rule="evenodd" clip-rule="evenodd" d="M60.5044 133.721C60.7037 130.264 61.3833 127.37 61.9498 125.761C63.0625 128.583 63.6126 131.291 63.7985 133.762C66.2341 133.95 68.9048 134.508 71.6866 135.637C70.1006 136.211 67.2472 136.901 63.8386 137.103C63.6485 140.773 62.7178 143.625 61.9498 145.085C61.0152 142.431 60.5887 139.701 60.4775 137.13C57.9422 137.017 55.2505 136.585 52.6336 135.637C54.0738 134.858 56.8855 133.914 60.5044 133.721Z" fill="url(#paint9_linear)"/>
<path fill-rule="evenodd" clip-rule="evenodd" d="M64.2134 213.178C64.5066 208.091 65.5065 203.834 66.3398 201.467C67.9769 205.618 68.7862 209.603 69.0598 213.238C72.643 213.515 76.5724 214.336 80.6651 215.996C78.3317 216.842 74.1337 217.856 69.1187 218.153C68.839 223.553 67.4698 227.749 66.3398 229.898C64.9648 225.993 64.3374 221.976 64.1737 218.193C60.4438 218.027 56.4836 217.391 52.6336 215.996C54.7524 214.85 58.8892 213.462 64.2134 213.178Z" fill="url(#paint10_linear)"/>
<ellipse cx="94.6823" cy="183.101" rx="1.8414" ry="1.86764" fill="#2F235A"/>
<ellipse cx="136.94" cy="129.551" rx="1.8414" ry="1.86764" fill="#FE9076"/>
<ellipse cx="44.3205" cy="175.686" rx="1.8414" ry="1.86764" fill="#FFA400"/>
<ellipse cx="126.847" cy="211.906" rx="1.8414" ry="1.86764" fill="#23BB86"/>
<path d="M132.428 121.756C128.265 115.957 116.538 103.57 102.934 100.417" stroke="#FE9076" stroke-width="1.60277" stroke-linecap="round"/>
<path d="M36.5511 170.68C30.3979 167.143 14.6733 160.775 1.00001 163.602" stroke="#FFA400" stroke-width="1.60277" stroke-linecap="round"/>
<path d="M120.527 217.331C117.374 220.153 109.788 228.166 104.669 237.647" stroke="#23BB86" stroke-width="1.60277" stroke-linecap="round"/>
<path fill-rule="evenodd" clip-rule="evenodd" d="M348.065 172.672C347.866 169.215 347.186 166.321 346.62 164.712C345.507 167.534 344.957 170.243 344.771 172.713C342.335 172.902 339.664 173.46 336.883 174.588C338.469 175.163 341.322 175.852 344.731 176.054C344.921 179.724 345.851 182.576 346.62 184.037C347.554 181.383 347.981 178.653 348.092 176.081C350.627 175.969 353.319 175.536 355.936 174.588C354.496 173.809 351.684 172.865 348.065 172.672Z" fill="url(#paint11_linear)"/>
<path fill-rule="evenodd" clip-rule="evenodd" d="M374.953 149.926C374.82 147.625 374.368 145.699 373.991 144.628C373.25 146.506 372.884 148.309 372.76 149.953C371.139 150.079 369.361 150.45 367.509 151.202C368.565 151.584 370.464 152.043 372.733 152.177C372.86 154.62 373.479 156.519 373.991 157.491C374.613 155.724 374.896 153.907 374.971 152.196C376.658 152.12 378.45 151.833 380.192 151.202C379.233 150.683 377.361 150.055 374.953 149.926Z" fill="url(#paint12_linear)"/>
<path fill-rule="evenodd" clip-rule="evenodd" d="M418.276 133.721C418.076 130.264 417.397 127.37 416.83 125.761C415.718 128.583 415.168 131.291 414.982 133.762C412.546 133.95 409.875 134.508 407.093 135.637C408.679 136.211 411.533 136.901 414.942 137.103C415.132 140.773 416.062 143.625 416.83 145.085C417.765 142.431 418.191 139.701 418.303 137.13C420.838 137.017 423.53 136.585 426.146 135.637C424.706 134.858 421.895 133.914 418.276 133.721Z" fill="url(#paint13_linear)"/>
<path fill-rule="evenodd" clip-rule="evenodd" d="M414.567 213.178C414.273 208.091 413.274 203.834 412.44 201.467C410.803 205.618 409.994 209.603 409.72 213.238C406.137 213.515 402.208 214.336 398.115 215.996C400.448 216.842 404.646 217.856 409.661 218.153C409.941 223.553 411.31 227.749 412.44 229.898C413.815 225.993 414.443 221.976 414.606 218.193C418.336 218.027 422.296 217.391 426.146 215.996C424.028 214.85 419.891 213.462 414.567 213.178Z" fill="url(#paint14_linear)"/>
<ellipse rx="1.8414" ry="1.86764" transform="matrix(-1 0 0 1 384.098 183.101)" fill="#2F235A"/>
<ellipse rx="1.8414" ry="1.86764" transform="matrix(-1 0 0 1 341.84 129.551)" fill="#FE9076"/>
<ellipse rx="1.8414" ry="1.86764" transform="matrix(-1 0 0 1 434.46 175.686)" fill="#FFA400"/>
<ellipse rx="1.8414" ry="1.86764" transform="matrix(-1 0 0 1 351.933 211.906)" fill="#23BB86"/>
<path d="M346.352 121.756C350.515 115.957 362.242 103.57 375.846 100.417" stroke="#FE9076" stroke-width="1.60277" stroke-linecap="round"/>
<path d="M442.229 170.68C448.382 167.143 464.107 160.775 477.78 163.602" stroke="#FFA400" stroke-width="1.60277" stroke-linecap="round"/>
<path d="M358.253 217.331C361.406 220.153 368.992 228.166 374.111 237.647" stroke="#23BB86" stroke-width="1.60277" stroke-linecap="round"/>
<path d="M269.426 57.3508C267.338 54.0795 263.112 55.8616 263.112 59.4251C263.112 62.1011 268.906 66.287 269.426 66.8313C269.95 66.287 275.456 62.1011 275.456 59.4251C275.456 55.8886 271.518 54.0795 269.426 57.3508V57.3508Z" fill="#FFBCBC"/>
<path d="M283.084 61.2305C283.084 68.9674 276.901 75.2316 269.284 75.2316C261.667 75.2316 255.484 68.9674 255.484 61.2305C255.484 53.4935 261.667 47.2294 269.284 47.2294C276.901 47.2294 283.084 53.4935 283.084 61.2305Z" stroke="#F7F7F7" stroke-width="0.649684"/>
<path d="M219.903 37.8437C218.055 34.9484 214.315 36.5257 214.315 39.6796C214.315 42.0479 219.443 45.7526 219.903 46.2343C220.367 45.7526 225.24 42.0479 225.24 39.6796C225.24 36.5496 221.755 34.9484 219.903 37.8437V37.8437Z" fill="#FFBCBC"/>
<path d="M231.991 41.2773C231.991 48.1249 226.519 53.6689 219.777 53.6689C213.036 53.6689 207.564 48.1249 207.564 41.2773C207.564 34.4298 213.036 28.8858 219.777 28.8858C226.519 28.8858 231.991 34.4298 231.991 41.2773Z" stroke="#F7F7F7" stroke-width="0.574998"/>
<path d="M252.586 16.5698C251.322 14.5896 248.763 15.6683 248.763 17.8254C248.763 19.4452 252.271 21.9789 252.586 22.3084C252.903 21.9789 256.235 19.4452 256.235 17.8254C256.235 15.6847 253.852 14.5896 252.586 16.5698V16.5698Z" fill="#FFBCBC"/>
<path d="M260.853 18.9181C260.853 23.6013 257.11 27.3931 252.499 27.3931C247.889 27.3931 244.146 23.6013 244.146 18.9181C244.146 14.2348 247.889 10.4431 252.499 10.4431C257.11 10.4431 260.853 14.2348 260.853 18.9181Z" stroke="#F7F7F7" stroke-width="0.393259"/>
<path d="M194.856 5.55089C193.822 3.93066 191.729 4.81331 191.729 6.57829C191.729 7.90365 194.598 9.97687 194.856 10.2465C195.115 9.97687 197.842 7.90365 197.842 6.57829C197.842 4.82669 195.892 3.93066 194.856 5.55089V5.55089Z" fill="#FFBCBC"/>
<path d="M201.62 7.47239C201.62 11.3044 198.558 14.4069 194.785 14.4069C191.013 14.4069 187.951 11.3044 187.951 7.47239C187.951 3.64039 191.013 0.537843 194.785 0.537843C198.558 0.537843 201.62 3.64039 201.62 7.47239Z" stroke="#F7F7F7" stroke-width="0.321779"/>
<path d="M189.769 81.5037C187.511 77.9662 182.941 79.8933 182.941 83.7468C182.941 86.6405 189.206 91.1669 189.769 91.7555C190.336 91.1669 196.29 86.6405 196.29 83.7468C196.29 79.9225 192.031 77.9662 189.769 81.5037V81.5037Z" fill="#FFBCBC"/>
<path d="M204.538 85.6989C204.538 94.0653 197.852 100.839 189.615 100.839C181.378 100.839 174.693 94.0653 174.693 85.6989C174.693 77.3325 181.378 70.5587 189.615 70.5587C197.852 70.5587 204.538 77.3325 204.538 85.6989Z" stroke="#F7F7F7" stroke-width="0.702541"/>
<defs>
<filter id="filter0_d" x="154.203" y="79.5959" width="173.664" height="126.78" filterUnits="userSpaceOnUse" color-interpolation-filters="sRGB">
<feFlood flood-opacity="0" result="BackgroundImageFix"/>
<feColorMatrix in="SourceAlpha" type="matrix" values="0 0 0 0 0 0 0 0 0 0 0 0 0 0 0 0 0 0 127 0"/>
<feOffset dy="4"/>
<feGaussianBlur stdDeviation="17"/>
<feColorMatrix type="matrix" values="0 0 0 0 0.0386285 0 0 0 0 0.0648437 0 0 0 0 0.104167 0 0 0 0.13 0"/>
<feBlend mode="normal" in2="BackgroundImageFix" result="effect1_dropShadow"/>
<feBlend mode="normal" in="SourceGraphic" in2="effect1_dropShadow" result="shape"/>
</filter>
<filter id="filter1_d" x="257.308" y="145.207" width="76.1995" height="89.0725" filterUnits="userSpaceOnUse" color-interpolation-filters="sRGB">
<feFlood flood-opacity="0" result="BackgroundImageFix"/>
<feColorMatrix in="SourceAlpha" type="matrix" values="0 0 0 0 0 0 0 0 0 0 0 0 0 0 0 0 0 0 127 0"/>
<feOffset dy="4"/>
<feGaussianBlur stdDeviation="17"/>
<feColorMatrix type="matrix" values="0 0 0 0 0.0386285 0 0 0 0 0.0648437 0 0 0 0 0.104167 0 0 0 0.13 0"/>
<feBlend mode="normal" in2="BackgroundImageFix" result="effect1_dropShadow"/>
<feBlend mode="normal" in="SourceGraphic" in2="effect1_dropShadow" result="shape"/>
</filter>
<filter id="filter2_d" x="242.466" y="132.307" width="89.599" height="111.984" filterUnits="userSpaceOnUse" color-interpolation-filters="sRGB">
<feFlood flood-opacity="0" result="BackgroundImageFix"/>
<feColorMatrix in="SourceAlpha" type="matrix" values="0 0 0 0 0 0 0 0 0 0 0 0 0 0 0 0 0 0 127 0"/>
<feOffset dy="4"/>
<feGaussianBlur stdDeviation="17"/>
<feColorMatrix type="matrix" values="0 0 0 0 0.0386285 0 0 0 0 0.0648437 0 0 0 0 0.104167 0 0 0 0.13 0"/>
<feBlend mode="normal" in2="BackgroundImageFix" result="effect1_dropShadow"/>
<feBlend mode="normal" in="SourceGraphic" in2="effect1_dropShadow" result="shape"/>
</filter>
<filter id="filter3_d" x="146.675" y="145.207" width="76.1995" height="89.0725" filterUnits="userSpaceOnUse" color-interpolation-filters="sRGB">
<feFlood flood-opacity="0" result="BackgroundImageFix"/>
<feColorMatrix in="SourceAlpha" type="matrix" values="0 0 0 0 0 0 0 0 0 0 0 0 0 0 0 0 0 0 127 0"/>
<feOffset dy="4"/>
<feGaussianBlur stdDeviation="17"/>
<feColorMatrix type="matrix" values="0 0 0 0 0.0386285 0 0 0 0 0.0648437 0 0 0 0 0.104167 0 0 0 0.13 0"/>
<feBlend mode="normal" in2="BackgroundImageFix" result="effect1_dropShadow"/>
<feBlend mode="normal" in="SourceGraphic" in2="effect1_dropShadow" result="shape"/>
</filter>
<filter id="filter4_d" x="147.965" y="132.307" width="89.599" height="111.984" filterUnits="userSpaceOnUse" color-interpolation-filters="sRGB">
<feFlood flood-opacity="0" result="BackgroundImageFix"/>
<feColorMatrix in="SourceAlpha" type="matrix" values="0 0 0 0 0 0 0 0 0 0 0 0 0 0 0 0 0 0 127 0"/>
<feOffset dy="4"/>
<feGaussianBlur stdDeviation="17"/>
<feColorMatrix type="matrix" values="0 0 0 0 0.0386285 0 0 0 0 0.0648437 0 0 0 0 0.104167 0 0 0 0.13 0"/>
<feBlend mode="normal" in2="BackgroundImageFix" result="effect1_dropShadow"/>
<feBlend mode="normal" in="SourceGraphic" in2="effect1_dropShadow" result="shape"/>
</filter>
<linearGradient id="paint0_linear" x1="390.781" y1="160.954" x2="393.504" y2="339.326" gradientUnits="userSpaceOnUse">
<stop stop-color="#FFEFE0"/>
<stop offset="1" stop-color="#FFBE99"/>
</linearGradient>
<linearGradient id="paint1_linear" x1="242.275" y1="203.437" x2="229.52" y2="455.295" gradientUnits="userSpaceOnUse">
<stop stop-color="#FF9F81"/>
<stop offset="1" stop-color="#F53838"/>
</linearGradient>
<linearGradient id="paint2_linear" x1="227.21" y1="291.956" x2="107.916" y2="348.326" gradientUnits="userSpaceOnUse">
<stop offset="0.0677966" stop-color="#FFEFE0"/>
<stop offset="1" stop-color="#FFBE99"/>
</linearGradient>
<linearGradient id="paint3_linear" x1="238.204" y1="175.817" x2="240.344" y2="243.147" gradientUnits="userSpaceOnUse">
<stop stop-color="#FFEFE0"/>
<stop offset="1" stop-color="#FFBE99"/>
</linearGradient>
<linearGradient id="paint4_linear" x1="238.204" y1="175.817" x2="235.207" y2="252.521" gradientUnits="userSpaceOnUse">
<stop stop-color="#FFEFE0"/>
<stop offset="1" stop-color="#FFBE99"/>
</linearGradient>
<linearGradient id="paint5_linear" x1="241.661" y1="139.92" x2="241.661" y2="220.775" gradientUnits="userSpaceOnUse">
<stop stop-color="#FFEFE0"/>
<stop offset="1" stop-color="#FFBE99"/>
</linearGradient>
<linearGradient id="paint6_linear" x1="274.829" y1="229.835" x2="215.18" y2="440.863" gradientUnits="userSpaceOnUse">
<stop offset="0.0171777" stop-color="white"/>
<stop offset="1" stop-color="#D7D7D7"/>
</linearGradient>
<linearGradient id="paint7_linear" x1="132.371" y1="166.769" x2="132.371" y2="184.914" gradientUnits="userSpaceOnUse">
<stop stop-color="#FFE89E"/>
<stop offset="1" stop-color="#FFBF1A"/>
</linearGradient>
<linearGradient id="paint8_linear" x1="104.93" y1="145.997" x2="104.93" y2="158.074" gradientUnits="userSpaceOnUse">
<stop stop-color="#FFE89E"/>
<stop offset="1" stop-color="#FFBF1A"/>
</linearGradient>
<linearGradient id="paint9_linear" x1="62.1601" y1="127.818" x2="62.1601" y2="145.962" gradientUnits="userSpaceOnUse">
<stop stop-color="#FFE89E"/>
<stop offset="1" stop-color="#FFBF1A"/>
</linearGradient>
<linearGradient id="paint10_linear" x1="66.6494" y1="204.493" x2="66.6494" y2="231.188" gradientUnits="userSpaceOnUse">
<stop stop-color="#FFE89E"/>
<stop offset="1" stop-color="#FFBF1A"/>
</linearGradient>
<linearGradient id="paint11_linear" x1="346.409" y1="166.769" x2="346.409" y2="184.914" gradientUnits="userSpaceOnUse">
<stop stop-color="#FFE89E"/>
<stop offset="1" stop-color="#FFBF1A"/>
</linearGradient>
<linearGradient id="paint12_linear" x1="373.85" y1="145.997" x2="373.85" y2="158.074" gradientUnits="userSpaceOnUse">
<stop stop-color="#FFE89E"/>
<stop offset="1" stop-color="#FFBF1A"/>
</linearGradient>
<linearGradient id="paint13_linear" x1="416.62" y1="127.818" x2="416.62" y2="145.962" gradientUnits="userSpaceOnUse">
<stop stop-color="#FFE89E"/>
<stop offset="1" stop-color="#FFBF1A"/>
</linearGradient>
<linearGradient id="paint14_linear" x1="412.131" y1="204.493" x2="412.131" y2="231.188" gradientUnits="userSpaceOnUse">
<stop stop-color="#FFE89E"/>
<stop offset="1" stop-color="#FFBF1A"/>
</linearGradient>
</defs>
</svg>
