<svg width="24" height="25" viewBox="0 0 24 25" fill="none" xmlns="http://www.w3.org/2000/svg">
<path d="M12 2.44629C6.486 2.44629 2 6.94781 2 12.4809C2 18.014 6.486 22.5155 12 22.5155C17.514 22.5155 22 18.014 22 12.4809C22 6.94781 17.514 2.44629 12 2.44629ZM10.001 16.9092L6.99301 13.8973C6.60321 13.507 6.60243 12.8749 6.99125 12.4837V12.4837C7.38222 12.0902 8.01851 12.0895 8.41038 12.482L9.999 14.0734L14.5836 9.47297C14.975 9.08019 15.611 9.08019 16.0024 9.47297V9.47297C16.392 9.86382 16.392 10.4961 16.0024 10.887L10.001 16.9092Z" fill="#2FAB73"/>
</svg>
